<svg width="185" height="46" viewBox="0 0 185 46" fill="none" xmlns="http://www.w3.org/2000/svg">
<path d="M10.24 34.288C8.59733 34.288 7.04 34.0747 5.568 33.648C4.11733 33.2 2.93333 32.6027 2.016 31.856C1.52533 31.4933 1.28 30.9813 1.28 30.32C1.28 29.872 1.408 29.488 1.664 29.168C1.94133 28.8267 2.26133 28.656 2.624 28.656C3.008 28.656 3.44533 28.8053 3.936 29.104C4.85333 29.7653 5.81333 30.2453 6.816 30.544C7.81867 30.8427 8.928 30.992 10.144 30.992C11.7013 30.992 12.896 30.7253 13.728 30.192C14.56 29.6373 14.976 28.8373 14.976 27.792C14.976 26.9813 14.5813 26.3627 13.792 25.936C13.024 25.488 11.7333 25.0613 9.92 24.656C8.04267 24.2507 6.51733 23.7813 5.344 23.248C4.17067 22.7147 3.28533 22.032 2.688 21.2C2.09067 20.368 1.792 19.312 1.792 18.032C1.792 16.7093 2.16533 15.5253 2.912 14.48C3.65867 13.4347 4.69333 12.624 6.016 12.048C7.36 11.4507 8.864 11.152 10.528 11.152C13.5787 11.152 16.064 11.9627 17.984 13.584C18.2613 13.8187 18.4533 14.0533 18.56 14.288C18.688 14.5013 18.752 14.7787 18.752 15.12C18.752 15.568 18.6133 15.9627 18.336 16.304C18.08 16.624 17.7707 16.784 17.408 16.784C17.1947 16.784 16.992 16.752 16.8 16.688C16.6293 16.624 16.3947 16.5067 16.096 16.336C15.2213 15.696 14.368 15.2267 13.536 14.928C12.7253 14.608 11.7227 14.448 10.528 14.448C9.07733 14.448 7.92533 14.7467 7.072 15.344C6.24 15.92 5.824 16.7307 5.824 17.776C5.824 18.6507 6.19733 19.3227 6.944 19.792C7.69067 20.2613 8.96 20.6987 10.752 21.104C12.6507 21.5307 14.1867 22.0107 15.36 22.544C16.5547 23.056 17.4613 23.7173 18.08 24.528C18.72 25.3387 19.04 26.352 19.04 27.568C19.04 28.8907 18.6667 30.064 17.92 31.088C17.1947 32.0907 16.16 32.88 14.816 33.456C13.4933 34.0107 11.968 34.288 10.24 34.288ZM32.8863 34.288C30.6889 34.288 28.7796 33.8187 27.1583 32.88C25.5583 31.9413 24.3209 30.5973 23.4463 28.848C22.5716 27.0987 22.1343 25.0507 22.1343 22.704C22.1343 20.3573 22.5609 18.32 23.4143 16.592C24.2889 14.8427 25.5369 13.4987 27.1583 12.56C28.7796 11.6213 30.6889 11.152 32.8863 11.152C35.0836 11.152 36.9823 11.6213 38.5823 12.56C40.2036 13.4987 41.4409 14.8427 42.2943 16.592C43.1689 18.32 43.6063 20.3573 43.6063 22.704C43.6063 25.0507 43.1689 27.0987 42.2943 28.848C41.4196 30.5973 40.1716 31.9413 38.5503 32.88C36.9503 33.8187 35.0623 34.288 32.8863 34.288ZM32.8863 30.992C34.9556 30.992 36.5663 30.2773 37.7183 28.848C38.8916 27.4187 39.4783 25.3707 39.4783 22.704C39.4783 20.0373 38.8916 18 37.7183 16.592C36.5663 15.1627 34.9556 14.448 32.8863 14.448C30.7956 14.448 29.1636 15.1627 27.9903 16.592C26.8383 18 26.2623 20.0373 26.2623 22.704C26.2623 25.3707 26.8383 27.4187 27.9903 28.848C29.1636 30.2773 30.7956 30.992 32.8863 30.992ZM49.7278 34C49.1091 34 48.6291 33.8293 48.2878 33.488C47.9464 33.1467 47.7758 32.6773 47.7758 32.08V13.328C47.7758 12.7093 47.9571 12.2187 48.3198 11.856C48.7038 11.472 49.2051 11.28 49.8238 11.28C50.4638 11.28 50.9651 11.472 51.3278 11.856C51.7118 12.2187 51.9038 12.7093 51.9038 13.328V30.608H60.8958C62.1758 30.608 62.8158 31.1733 62.8158 32.304C62.8158 33.4347 62.1758 34 60.8958 34H49.7278Z" fill="#28C9AC"/>
<path d="M128.896 37.136C129.131 37.52 129.248 37.8933 129.248 38.256C129.248 38.7467 129.056 39.1413 128.672 39.44C128.288 39.76 127.84 39.92 127.328 39.92C126.944 39.92 126.581 39.824 126.24 39.632C125.899 39.4613 125.621 39.1947 125.408 38.832L123.52 35.728C123.221 35.2373 122.827 34.8747 122.336 34.64C121.867 34.4053 121.248 34.288 120.48 34.288C118.283 34.288 116.373 33.8187 114.752 32.88C113.152 31.9413 111.915 30.5973 111.04 28.848C110.165 27.0987 109.728 25.0507 109.728 22.704C109.728 20.3573 110.165 18.32 111.04 16.592C111.915 14.8427 113.152 13.4987 114.752 12.56C116.373 11.6213 118.283 11.152 120.48 11.152C122.656 11.152 124.544 11.6213 126.144 12.56C127.765 13.4987 129.013 14.8427 129.888 16.592C130.763 18.32 131.2 20.3573 131.2 22.704C131.2 25.2427 130.688 27.4293 129.664 29.264C128.661 31.0773 127.221 32.4 125.344 33.232C126.325 33.5733 127.136 34.2773 127.776 35.344L128.896 37.136ZM120.48 30.992C122.549 30.992 124.16 30.2773 125.312 28.848C126.485 27.4187 127.072 25.3707 127.072 22.704C127.072 20.0373 126.485 18 125.312 16.592C124.16 15.1627 122.549 14.448 120.48 14.448C118.389 14.448 116.757 15.1627 115.584 16.592C114.432 18 113.856 20.0373 113.856 22.704C113.856 25.3707 114.432 27.4187 115.584 28.848C116.757 30.2773 118.389 30.992 120.48 30.992ZM144.682 34.288C141.588 34.288 139.242 33.488 137.641 31.888C136.042 30.288 135.242 27.952 135.242 24.88V13.328C135.242 12.7093 135.423 12.2187 135.786 11.856C136.148 11.472 136.639 11.28 137.258 11.28C137.876 11.28 138.367 11.472 138.73 11.856C139.092 12.2187 139.274 12.7093 139.274 13.328V25.104C139.274 27.0453 139.732 28.5173 140.65 29.52C141.567 30.5013 142.911 30.992 144.682 30.992C146.431 30.992 147.764 30.4907 148.682 29.488C149.599 28.4853 150.058 27.024 150.058 25.104V13.328C150.058 12.7093 150.239 12.2187 150.602 11.856C150.964 11.472 151.455 11.28 152.074 11.28C152.692 11.28 153.183 11.472 153.546 11.856C153.908 12.2187 154.09 12.7093 154.09 13.328V24.88C154.09 27.9307 153.29 30.2667 151.69 31.888C150.09 33.488 147.754 34.288 144.682 34.288ZM160.886 34.192C160.268 34.192 159.766 34 159.382 33.616C159.02 33.232 158.838 32.7307 158.838 32.112V13.328C158.838 12.7093 159.02 12.2187 159.382 11.856C159.766 11.472 160.268 11.28 160.886 11.28C161.526 11.28 162.028 11.472 162.39 11.856C162.774 12.2187 162.966 12.7093 162.966 13.328V32.112C162.966 32.7307 162.774 33.232 162.39 33.616C162.028 34 161.526 34.192 160.886 34.192ZM182.014 30.704C183.294 30.704 183.934 31.248 183.934 32.336C183.934 33.4453 183.294 34 182.014 34H168.382C167.828 34 167.38 33.84 167.038 33.52C166.718 33.1787 166.558 32.752 166.558 32.24C166.558 31.728 166.729 31.2373 167.07 30.768L178.526 14.736H168.51C167.23 14.736 166.59 14.192 166.59 13.104C166.59 11.9947 167.23 11.44 168.51 11.44H181.726C182.281 11.44 182.718 11.6107 183.038 11.952C183.38 12.272 183.55 12.6773 183.55 13.168C183.55 13.6587 183.369 14.1493 183.006 14.64L171.55 30.704H182.014Z" fill="#AAAAAA"/>
<path d="M93.5269 8.44561C92.1187 8.23481 90.6824 8.30772 89.303 8.66002C87.9236 9.01232 86.629 9.63686 85.4958 10.4967C84.7315 11.0735 84.0505 11.7526 83.472 12.5148C81.7826 14.7351 81.0316 17.5265 81.3796 20.292C81.4907 21.16 81.7101 22.0108 82.0329 22.8246C82.2263 23.3133 82.4565 23.7868 82.7217 24.2408C83.1087 24.9189 83.5699 25.5522 84.0969 26.129C83.2236 26.0012 82.3702 25.7633 81.5571 25.4209C79.8331 24.7002 78.3297 23.5397 77.198 22.056C76.0662 20.5724 75.3459 18.8178 75.1095 16.9687C75.0693 16.65 75.0433 16.3243 75.0314 15.9962C74.9546 13.8257 75.5468 11.6838 76.7284 9.85933C77.9099 8.03482 79.624 6.61537 81.6396 5.79228C83.6551 4.96919 85.8752 4.78204 88.0008 5.25604C90.1263 5.73005 92.055 6.84242 93.5269 8.44325V8.44561Z" fill="#2D7D90" stroke="white" stroke-miterlimit="10"/>
<path d="M96.8241 29.778C96.824 31.9177 96.176 34.0074 94.9647 35.7736C93.7535 37.5397 92.0355 38.8999 90.036 39.676C88.0364 40.452 85.8483 40.6078 83.7585 40.1228C81.6686 39.6378 79.7744 38.5347 78.3239 36.9581C80.8331 37.3377 83.3956 36.8067 85.5455 35.4616C85.8248 35.287 86.0946 35.1005 86.3526 34.9046C88.1983 33.5042 89.5353 31.5413 90.1603 29.3141C90.7853 27.087 90.6642 24.7172 89.8155 22.5649C89.3358 21.3469 88.6362 20.2269 87.7515 19.2605C90.2749 19.6376 92.5788 20.9056 94.2438 22.8337C95.9089 24.7617 96.8245 27.2218 96.8241 29.7662V29.778Z" fill="#80ED99" stroke="white" stroke-miterlimit="10"/>
<path d="M101.418 31.3358C100.681 32.6115 99.6861 33.7202 98.4957 34.5911C97.3053 35.462 95.946 36.076 94.5044 36.3939C95.6665 34.9354 96.4234 33.1977 96.6993 31.3553C96.9751 29.5129 96.7602 27.6305 96.076 25.8971C95.3919 24.1637 94.2626 22.6402 92.8014 21.4794C91.3403 20.3187 89.5987 19.5616 87.7515 19.2841C86.4585 19.0933 85.1415 19.1389 83.8649 19.4186C84.4102 18.729 85.0418 18.1119 85.7443 17.5823C87.9717 15.9013 90.7694 15.1543 93.5411 15.5005C94.943 15.6762 96.2961 16.127 97.5223 16.827C99.9687 18.2355 101.754 20.5554 102.485 23.2763C103.216 25.9972 102.833 28.8963 101.421 31.3358H101.418Z" fill="#57CC99" stroke="white" stroke-miterlimit="10"/>
<path d="M90.1303 29.4145C89.4939 31.6036 88.1656 33.5291 86.3432 34.9046C86.0852 35.1005 85.8153 35.2869 85.536 35.4616C83.6895 36.6079 81.5354 37.163 79.3631 37.0523C77.1909 36.9416 75.1047 36.1704 73.385 34.8424C71.6653 33.5144 70.3946 31.6932 69.7436 29.6237C69.0926 27.5541 69.0926 25.3355 69.7436 23.2659C70.669 25.6232 72.4117 27.5712 74.6551 28.756C74.9462 28.9094 75.2397 29.0487 75.5379 29.1761C77.2624 29.8967 79.1467 30.152 81.0015 29.9163C82.8562 29.6805 84.6161 28.9621 86.1041 27.8331C87.3283 26.9027 88.336 25.719 89.0581 24.3635C89.365 23.7882 89.6185 23.1862 89.8155 22.5649C90.6759 24.7492 90.7866 27.1561 90.1303 29.4098V29.4145Z" fill="#B6F6C0" stroke="white" stroke-miterlimit="10"/>
<path d="M102.105 22.1377C101.226 19.9001 99.6101 18.0272 97.5223 16.827C96.2977 16.1232 94.9454 15.6684 93.5434 15.4888C90.7717 15.1425 87.974 15.8895 85.7466 17.5705C85.0442 18.1002 84.4126 18.7173 83.8673 19.4069C83.5363 19.8195 83.2372 20.2567 82.9726 20.7145C82.5807 21.3862 82.2632 22.0985 82.0258 22.8387C81.7014 22.0221 81.4811 21.1681 81.3701 20.2967C81.0221 17.5313 81.7731 14.7398 83.4625 12.5195C84.041 11.7573 84.722 11.0783 85.4863 10.5014C86.6195 9.64159 87.9141 9.01705 89.2935 8.66475C90.6729 8.31244 92.1092 8.23954 93.5174 8.45033C95.0384 8.67859 96.4918 9.23263 97.7776 10.0743C99.0634 10.9161 100.151 12.0255 100.966 13.3263C101.781 14.6272 102.304 16.0886 102.498 17.6101C102.693 19.1315 102.554 20.677 102.093 22.1401L102.105 22.1377Z" fill="#38A3A5" stroke="white" stroke-miterlimit="10"/>
<path d="M87.9882 25.9921C87.4384 26.6838 86.802 27.3026 86.0946 27.8331C84.6066 28.9621 82.8467 29.6806 80.992 29.9163C79.1372 30.1521 77.2529 29.8968 75.5285 29.1762C75.2302 29.0487 74.9367 28.9094 74.6456 28.756C72.724 27.7358 71.162 26.1528 70.17 24.2204C69.178 22.2879 68.8037 20.0988 69.0974 17.9477C69.3911 15.7966 70.3388 13.787 71.8128 12.1893C73.2868 10.5917 75.2163 9.48286 77.3416 9.01208C75.76 10.9902 74.9421 13.4681 75.0361 15.9962C75.048 16.3243 75.074 16.65 75.1143 16.9687C75.3521 18.8167 76.0723 20.5701 77.203 22.0534C78.3337 23.5367 79.8351 24.6979 81.5571 25.4209C82.3702 25.7633 83.2236 26.0012 84.0969 26.129C84.7415 26.2248 85.3936 26.2611 86.0449 26.2376C86.6989 26.2165 87.3495 26.1343 87.9882 25.9921Z" fill="#22577A" stroke="white" stroke-miterlimit="10"/>
</svg>
